<svg width="75" height="30" fill="none" xmlns="http://www.w3.org/2000/svg"><path d="M60.131 30C68.343 30 75 23.284 75 15c0-8.284-6.657-15-14.869-15-8.211 0-14.868 6.716-14.868 15 0 8.284 6.657 15 14.868 15Zm-19.483-8.276c.408 0 .8-.163 1.088-.454a1.558 1.558 0 0 0 0-2.195 1.531 1.531 0 0 0-2.176 0 1.559 1.559 0 0 0 0 2.195c.289.29.68.454 1.088.454ZM33.801 8.61h3.515v13.216h-3.24l-5.356-7.248.043 7.144H25.24V8.524h3.252l5.311 7.669V8.61ZM17.943 22.048c-3.387 0-5.72-2.24-5.72-5.478V8.61h3.524v7.969c0 1.331.911 2.25 2.196 2.25 1.294 0 2.205-.919 2.205-2.242V8.61h3.524v7.96c0 3.238-2.333 5.479-5.729 5.479v-.001ZM6.784 15.034l5.099 6.69H7.455L3.66 16.38h-.136v5.341H0V8.61h3.524v5.462h.093L7.2 8.61h4.069l-4.486 6.424Z" fill="#0C2F75"/><path d="M72.138 21.719V18.55h-5.014l5.397-9.943H62.34v3.16h4.4L61.32 21.72h10.819Zm-11.602-5.152v-7.96h-3.524v7.977c0 1.323-.91 2.242-2.205 2.242-1.285 0-2.195-.92-2.195-2.25v-7.97h-3.525v7.961c0 3.238 2.332 5.479 5.72 5.479 3.396 0 5.73-2.242 5.73-5.479Z" fill="#fff"/></svg>